<svg width="30" height="30" viewBox="0 0 30 30" fill="none" xmlns="http://www.w3.org/2000/svg">
<g id="&#240;&#159;&#166;&#134; emoji &#34;white heavy check mark&#34;">
<path id="Vector" d="M15 30C23.2843 30 30 23.2843 30 15C30 6.71573 23.2843 0 15 0C6.71573 0 0 6.71573 0 15C0 23.2843 6.71573 30 15 30Z" fill="#207384"/>
<path id="Vector_2" d="M21.546 10.1439C21.8554 10.4142 22.0449 10.7963 22.0726 11.2063C22.1004 11.6162 21.9642 12.0204 21.694 12.33L14.8335 20.1854C14.6598 20.3844 14.4437 20.542 14.2011 20.6467C13.9585 20.7513 13.6956 20.8004 13.4316 20.7902C13.1676 20.7801 12.9092 20.711 12.6753 20.5881C12.4415 20.4651 12.2381 20.2914 12.0801 20.0796L9.00156 15.9554C8.75578 15.626 8.65091 15.2125 8.71003 14.8058C8.76914 14.3991 8.98739 14.0325 9.31677 13.7867C9.64615 13.5409 10.0597 13.4361 10.4664 13.4952C10.8731 13.5543 11.2396 13.7726 11.4854 14.1019L13.5803 16.909L19.3595 10.2919C19.4933 10.1386 19.6561 10.0131 19.8384 9.92275C20.0207 9.83236 20.219 9.77876 20.4221 9.76503C20.6251 9.75129 20.8289 9.77768 21.0217 9.84269C21.2145 9.9077 21.3927 10.0101 21.546 10.1439Z" fill="white"/>
</g>
</svg>
