<svg width="32" height="34" viewBox="0 0 32 34" fill="none" xmlns="http://www.w3.org/2000/svg">
<g id="logo">
<g id="Group 48095551">
<g id="Group 2">
<g id="Logo">
<path id="Vector" d="M31.8855 20.1773C31.8013 20.7019 31.4093 20.9896 30.9978 21.2582C30.8715 21.3404 30.7451 21.4225 30.6155 21.4984C30.3693 21.6375 30.2235 21.8429 30.149 22.1084C30.0648 22.415 29.9676 22.7184 29.8672 23.0187C29.8088 23.1956 29.7084 23.3379 29.5367 23.4422C29.4622 23.4864 29.4071 23.6034 29.3877 23.6982C29.3294 24.0142 29.3002 24.3335 29.2419 24.6495C29.1965 24.8897 29.1415 25.1299 29.0605 25.3607C28.9244 25.7463 28.8499 26.1413 28.8207 26.5459C28.7916 26.9694 28.7462 27.3898 28.568 27.7848C28.3024 28.379 27.8294 28.7014 27.1814 28.7931C26.6209 28.8721 26.0637 28.8184 25.5194 28.6888C24.7289 28.4991 23.9481 28.2779 23.1609 28.0819C22.7494 27.9808 22.3283 27.9049 21.9104 27.8228C21.7063 27.7848 21.6998 27.7943 21.6091 27.9776C21.3564 28.477 21.2106 29.0048 21.2106 29.5611C21.2106 30.1774 21.379 30.7526 21.6998 31.2805C22.0788 31.8999 22.4676 32.5099 22.8564 33.1199C22.9212 33.2211 23.0021 33.319 23.0896 33.4012C23.1577 33.4676 23.1836 33.534 23.1836 33.6225C23.1836 33.7015 23.1965 33.7773 23.203 33.8564C23.1933 33.8658 23.1836 33.8753 23.1739 33.8848C22.9957 33.7868 22.8078 33.7078 22.6458 33.5877C22.2019 33.2558 21.7548 32.924 21.3402 32.5605C20.6631 31.9726 19.9989 31.3721 19.3542 30.7526C19.1501 30.5567 19.0075 30.288 18.8585 30.0415C18.6026 29.6117 18.4017 29.1565 18.2883 28.6698C18.1911 28.2526 18.1847 27.8291 18.2138 27.4056C18.3013 26.0591 18.9233 24.9403 19.7818 23.9226C20.8769 22.6236 21.9428 21.2961 22.905 19.8991C23.9125 18.4358 24.8002 16.9124 25.4352 15.2562C25.7786 14.3618 26.0345 13.4452 26.1803 12.5002C26.284 11.8333 26.3229 11.1664 26.2872 10.4964C26.203 8.81491 25.7203 7.25042 24.7872 5.82815C24.2786 5.0538 23.6274 4.40587 22.892 3.83696C21.797 2.99308 20.5756 2.38941 19.2376 2.0133C18.5734 1.82683 17.8963 1.70356 17.2063 1.64351C16.4708 1.58029 15.7419 1.61191 15.0097 1.68776C13.7883 1.81734 12.6188 2.13025 11.514 2.64858C9.31749 3.67894 7.72354 5.26872 6.82613 7.49695C6.56047 8.15435 6.38876 8.83388 6.28509 9.53237C6.19762 10.1234 6.16522 10.7144 6.17494 11.3118C6.18466 11.9629 6.29806 12.5982 6.473 13.224C6.86501 14.602 7.25701 15.9768 7.66198 17.3485C7.83693 17.9396 8.15766 18.4642 8.4946 18.9794C9.28833 20.1931 10.2214 21.3056 11.1317 22.4339C11.6987 23.1419 12.2624 23.8531 12.8132 24.5737C13.257 25.1521 13.4838 25.8221 13.6166 26.5269C13.7138 27.0421 13.73 27.5604 13.6587 28.0756C13.5615 28.7709 13.3121 29.4157 12.9298 30.0099C12.5119 30.6641 11.9384 31.173 11.3294 31.6471C10.7916 32.0643 10.2635 32.4941 9.73218 32.9208C9.55399 33.063 9.38228 33.2116 9.20086 33.3412C9.1231 33.3981 9.01944 33.4265 8.92225 33.4518C8.88013 33.4644 8.81209 33.4518 8.78617 33.4234C8.76349 33.3981 8.76026 33.3254 8.7797 33.2906C8.89309 33.101 9.00972 32.9145 9.13283 32.7312C9.43088 32.2919 9.74837 31.8652 10.0302 31.4195C10.3445 30.9202 10.5551 30.3734 10.6393 29.7887C10.7235 29.1976 10.6393 28.6256 10.4255 28.0725C10.3672 27.9271 10.2927 27.7912 10.2376 27.6458C10.1987 27.5352 10.1307 27.5225 10.0238 27.5288C9.53455 27.5636 9.06155 27.6805 8.58855 27.8038C7.78186 28.0187 6.97516 28.24 6.16522 28.4422C5.70194 28.556 5.2257 28.5939 4.74622 28.5086C4.02051 28.379 3.56047 27.9555 3.34665 27.2791C3.24297 26.9536 3.2041 26.6059 3.11987 26.2741C2.99676 25.7715 2.85097 25.2722 2.7311 24.7696C2.6663 24.4947 2.61447 24.2102 2.60475 23.9321C2.59503 23.6318 2.50108 23.3695 2.33261 23.1261C2.22246 22.9649 2.09611 22.8132 2.00864 22.6394C1.93088 22.4814 1.87257 22.3075 1.85637 22.1337C1.83045 21.8492 1.73326 21.6027 1.5162 21.4226C1.17278 21.1318 0.816414 20.8568 0.460042 20.585C0.314254 20.4712 0.152268 20.3796 0 20.2784C0 20.2563 0 20.2342 0 20.2089C0.0226782 20.0477 0.038879 19.8865 0.0680367 19.7285C0.14579 19.3049 0.35637 18.9415 0.60583 18.5938C0.839091 18.2714 1.07559 17.9522 1.28618 17.6172C1.60691 17.1083 1.76242 16.5363 1.87257 15.9547C1.973 15.4332 2.01512 14.9086 1.91469 14.3839C1.84341 14.0109 1.74622 13.638 1.64579 13.2714C1.42873 12.5002 1.26998 11.7195 1.2473 10.9167C1.22138 10.057 1.28293 9.19735 1.38985 8.34398C1.4838 7.59492 1.61663 6.84902 1.81101 6.11576C2.01188 5.3509 2.24838 4.60184 2.65335 3.91283C2.78618 3.68842 2.94168 3.47982 3.1555 3.30599C3.1555 3.32179 3.16199 3.32495 3.15875 3.32811C3.04535 3.79904 2.85097 4.23836 2.6501 4.67769C2.38769 5.24975 2.19654 5.84395 2.2419 6.47607C2.27106 6.87114 2.35205 7.2599 2.40712 7.65498C2.40712 7.67078 2.41684 7.68342 2.42332 7.69606C2.43304 7.6929 2.446 7.68658 2.45572 7.68342C2.4946 7.56016 2.54319 7.44321 2.56587 7.31679C2.63715 6.91539 2.6987 6.51084 2.76025 6.10628C2.86393 5.44572 3.06155 4.81991 3.37905 4.22572C3.79049 3.46086 4.32505 2.78449 4.95032 2.17449C5.54967 1.58978 6.21058 1.08092 6.98163 0.726934C7.19546 0.628956 7.419 0.556263 7.6393 0.470926C7.64578 0.483569 7.65227 0.496216 7.65875 0.505698C7.59395 0.562589 7.52915 0.625794 7.46112 0.676364C7.26349 0.821751 7.0594 0.963983 6.85853 1.10621C6.17819 1.58662 5.53995 2.10496 5.01835 2.75288C4.56155 3.32179 4.20518 3.94126 3.99459 4.6366C3.77753 5.35405 3.67063 6.09047 3.63823 6.83953C3.61231 7.51906 3.62851 8.19544 3.80022 8.85916C3.89093 9.20683 4.00756 9.54186 4.26674 9.81051C4.30238 9.84843 4.35097 9.88004 4.39309 9.9148C4.40604 9.74413 4.40281 9.58926 4.38337 9.43755C4.34449 9.12149 4.2635 8.8086 4.26674 8.4957C4.26998 8.14171 4.34773 7.79088 4.39633 7.44006C4.47732 6.87747 4.61339 6.32752 4.81749 5.79338C5.39416 4.31106 6.38229 3.1448 7.67819 2.21558C8.91253 1.33062 10.2959 0.745905 11.7797 0.388757C12.4892 0.218085 13.2052 0.107458 13.9341 0.0474071C14.0475 0.0379253 14.1609 0.015803 14.2743 0C15.0518 0 15.8294 0 16.6069 0C16.6393 0.0094818 16.6717 0.02212 16.7073 0.0252806C16.9568 0.0505654 17.2127 0.0600506 17.459 0.0979778C18.0972 0.199117 18.7387 0.284453 19.3704 0.423519C20.7797 0.733258 22.1177 1.22315 23.365 1.9406C24.6739 2.69283 25.7624 3.66629 26.5464 4.94317C26.8736 5.47732 27.1361 6.04307 27.3142 6.64043C27.5119 7.29783 27.5669 7.97103 27.5864 8.6474C27.5993 9.08356 27.5993 9.51973 27.6058 9.95589C27.6058 9.9875 27.6123 10.0159 27.6155 10.0476C27.6285 10.0507 27.6447 10.057 27.6577 10.0602C27.7484 9.90216 27.8553 9.75361 27.9233 9.58926C28.1112 9.10885 28.189 8.60631 28.257 8.09746C28.351 7.41161 28.3412 6.73207 28.2278 6.04938C28.095 5.24659 27.8099 4.50069 27.3758 3.80852C26.8348 2.94252 26.1091 2.2377 25.3088 1.60558C25.0302 1.3875 24.7581 1.1631 24.4827 0.945017C24.4892 0.935535 24.4957 0.929218 24.4989 0.919736C24.5605 0.935539 24.6253 0.951343 24.6868 0.970307C25.4417 1.20419 26.0831 1.63087 26.6501 2.15869C27.5961 3.04049 28.2764 4.09298 28.7365 5.28136C29.0151 5.99566 29.1933 6.73208 29.2419 7.49695C29.2516 7.65814 29.2613 7.81616 29.2743 7.99C29.3002 7.9742 29.3132 7.96787 29.3229 7.95839C29.352 7.92678 29.3812 7.89834 29.4071 7.86358C29.6242 7.56332 29.7181 7.21881 29.7343 6.86166C29.757 6.37493 29.6145 5.91032 29.4428 5.45835C29.216 4.86732 28.973 4.28261 28.7397 3.69158C28.73 3.66946 28.7268 3.64733 28.7235 3.62521C28.7365 3.61889 28.7494 3.6094 28.7592 3.60308C28.8952 3.77692 29.0443 3.94127 29.1641 4.12458C29.5173 4.67136 29.7376 5.27188 29.9222 5.8882C30.1846 6.76369 30.3726 7.65497 30.4827 8.56207C30.5443 9.0804 30.6091 9.59874 30.6382 10.1202C30.6641 10.5848 30.6479 11.0526 30.6447 11.5172C30.6415 12.0008 30.5605 12.4749 30.4471 12.9427C30.3078 13.5147 30.149 14.0836 30.0356 14.662C29.8834 15.4459 29.9611 16.2234 30.217 16.9787C30.4244 17.5982 30.784 18.1387 31.1436 18.6792C31.4417 19.1248 31.7916 19.542 31.8888 20.0888V20.1804L31.8855 20.1773Z" fill="#207384"/>
<path id="Vector_2" d="M17.8336 18.4447C17.7202 18.1855 17.7299 17.9295 17.7882 17.6703C17.8789 17.2563 18.0766 16.8865 18.2969 16.5325C18.7407 15.8151 19.2817 15.1671 19.8584 14.554C20.3314 14.0483 20.5841 13.4573 20.7105 12.8062C20.9729 11.4756 20.7105 10.2492 19.8681 9.16831C19.2299 8.34972 18.394 7.78082 17.3638 7.52481C16.4275 7.29092 15.5074 7.37625 14.6165 7.72392C13.6511 8.10003 12.8735 8.70686 12.2969 9.55074C11.9308 10.088 11.6943 10.6759 11.6068 11.3175C11.4804 12.2373 11.6813 13.0969 12.109 13.9187C12.4102 14.4939 12.7925 15.0059 13.3109 15.4073C13.8293 15.8119 14.1014 16.3713 14.3314 16.956C14.4578 17.2816 14.5809 17.6071 14.6198 17.9579C14.6262 18.0275 14.6683 18.0401 14.7299 18.0401C14.9243 18.0401 15.1187 18.037 15.3131 18.0401C15.3973 18.0401 15.42 18.0117 15.42 17.9327C15.4167 17.6988 15.42 17.4617 15.42 17.2278C15.42 16.0679 15.42 14.908 15.42 13.7449C15.42 13.5742 15.42 13.5805 15.2547 13.5394C15.0118 13.4762 14.7655 13.4193 14.5323 13.3308C14.231 13.2202 14.1111 12.9674 14.069 12.6734C14.0463 12.4996 14.0204 12.3289 14.15 12.1772C14.3444 11.956 14.5874 11.8137 14.8789 11.76C15.42 11.6589 15.6921 12.0065 15.7796 12.4142C15.812 12.5754 15.8249 12.743 15.8411 12.9073C15.8476 12.98 15.8768 13.0116 15.9578 13.0084C16.0971 13.0021 16.2364 13.0053 16.3789 13.0084C16.4567 13.0084 16.4858 12.9832 16.5053 12.9105C16.5895 12.5976 16.6964 12.2942 16.9103 12.0381C17.0334 11.8896 17.1792 11.7758 17.3768 11.7347C17.6165 11.6841 17.8206 11.76 18.002 11.9117C18.394 12.2404 18.5107 12.8314 18.1154 13.217C17.9502 13.3782 17.7364 13.4478 17.5226 13.5205C17.3476 13.5773 17.1727 13.6406 16.9945 13.6975C16.9394 13.7164 16.9135 13.7385 16.9362 13.7954C17.1305 14.3169 17.0917 14.8606 17.0884 15.4042C17.0884 15.9225 17.0884 16.444 17.0884 16.9624C17.0884 17.2468 17.1014 17.5313 17.0884 17.8157C17.0787 18.1002 16.8908 18.2803 16.6414 18.4384C16.6316 18.3151 16.6219 18.2045 16.6187 18.0938C16.5928 17.1804 16.5668 16.267 16.5409 15.3536C16.5247 14.8005 16.502 14.2474 16.4858 13.6943C16.4858 13.5932 16.4437 13.5647 16.3465 13.571C16.2267 13.5773 16.1068 13.5773 15.9837 13.571C15.88 13.5647 15.8509 13.5995 15.8541 13.7006C15.8671 14.4971 15.8735 15.2936 15.88 16.09C15.8833 16.5862 15.8865 17.0825 15.88 17.5818C15.8768 17.7746 15.8476 17.9674 15.8087 18.1539C15.7634 18.3846 15.6306 18.4889 15.3941 18.4889C15.0733 18.4889 14.7493 18.4731 14.4286 18.4668C14.3509 18.4668 14.3476 18.4131 14.3347 18.3625C14.1986 17.8378 14.0269 17.3258 13.7807 16.8359C13.4956 16.2733 13.0971 15.7929 12.6597 15.3346C12.3681 15.0312 12.0798 14.7215 11.8239 14.3896C11.4934 13.9598 11.3411 13.4541 11.2569 12.9294C11.1824 12.4743 11.1597 12.016 11.1921 11.5577C11.231 10.9793 11.3671 10.4199 11.6392 9.90157C11.9535 9.30738 12.3195 8.74479 12.8087 8.26754C13.3854 7.70179 14.0852 7.37941 14.8789 7.23403C15.6273 7.09812 16.3854 7.07599 17.1403 7.10128C17.5388 7.11392 17.921 7.23403 18.2774 7.40154C19.366 7.9104 20.1986 8.68791 20.7817 9.7151C20.9988 10.0975 21.1154 10.5116 21.1673 10.9446C21.2191 11.3807 21.3066 11.8201 21.2839 12.2531C21.2418 13.0495 21.0312 13.8112 20.5128 14.4528C20.069 15.0028 19.6057 15.5401 19.1392 16.0742C18.8476 16.4093 18.6694 16.7917 18.5431 17.2057C18.4556 17.4965 18.3714 17.7873 18.2774 18.0749C18.2126 18.274 18.0604 18.3878 17.8433 18.4542L17.8336 18.4447ZM16.907 13.0021C17.2083 13.0021 17.4869 13.0021 17.7655 13.0021C17.8401 13.0021 17.8401 12.9547 17.8401 12.901C17.8401 12.7113 17.8401 12.5217 17.8401 12.3321C17.8401 12.2562 17.8109 12.2341 17.7364 12.2373C17.5906 12.2404 17.4416 12.2373 17.2925 12.2373C17.1392 12.2373 17.0517 12.3131 17.0301 12.4648C17.0301 12.4648 17.0236 12.4933 17.0172 12.5091C16.9815 12.6671 16.9426 12.8251 16.9005 13.0021H16.907ZM15.0344 13.0021C15.1316 13.0021 15.2288 13.0021 15.326 13.0021C15.3908 13.0021 15.42 12.9737 15.4135 12.9136C15.4005 12.7714 15.3876 12.6292 15.3714 12.4838C15.3617 12.3795 15.2969 12.3068 15.1964 12.2783C14.9696 12.2088 14.7429 12.2025 14.542 12.351C14.5128 12.3732 14.4902 12.4332 14.4966 12.468C14.529 12.6165 14.5679 12.7619 14.6165 12.9041C14.6327 12.9452 14.691 12.9895 14.7364 12.999C14.8303 13.0148 14.9308 13.0021 15.028 13.0021H15.0344Z" fill="#207384"/>
<path id="Vector_3" d="M17.8044 19.965C17.8141 20.2368 17.7655 20.4802 17.6619 20.7078C17.5841 20.8784 17.4869 21.0365 17.4027 21.204C17.3735 21.2609 17.3346 21.2703 17.2731 21.2672C16.8292 21.2356 16.3822 21.2103 15.9383 21.1819C15.5787 21.1597 15.2191 21.1344 14.84 21.1092C14.9405 20.9511 15.0766 20.85 15.2547 20.8342C15.4426 20.8152 15.6338 20.8121 15.8249 20.8152C16.2558 20.8215 16.6867 20.8373 17.1176 20.85C17.2083 20.8531 17.2439 20.8247 17.2375 20.733C17.231 20.6035 17.231 20.4739 17.2375 20.3475C17.2439 20.2495 17.2018 20.2273 17.1079 20.2273C16.3336 20.2273 15.5625 20.2273 14.7882 20.2305C14.6781 20.2305 14.6327 20.1989 14.6036 20.0978C14.5355 19.8765 14.4416 19.6648 14.3865 19.4435C14.3476 19.2823 14.3541 19.1085 14.3379 18.9283H18.1025V19.3392H14.9599C14.8627 19.6932 15.0668 19.9682 15.4232 19.9682C16.1651 19.9682 16.907 19.9682 17.6489 19.9682C17.6943 19.9682 17.7396 19.9682 17.8044 19.9682V19.965Z" fill="#207384"/>
<path id="Vector_4" d="M11.5683 17.1583C11.6719 17.7051 10.9203 18.3657 10.2529 18.2803C10.3825 18.0907 10.4959 17.9074 10.6255 17.7367C10.7097 17.6261 10.8296 17.5376 10.9171 17.427C11.0855 17.2152 11.3091 17.1457 11.5715 17.1615L11.5683 17.1583Z" fill="#207384"/>
<path id="Vector_5" d="M11.4385 8.3751C10.9558 8.03376 10.4893 7.67662 10.2593 7.08875C10.4731 7.08875 10.661 7.11087 10.823 7.21833C11.1016 7.40797 11.3446 7.63869 11.5293 7.91682C11.6524 8.1033 11.6232 8.2392 11.4385 8.3751Z" fill="#207384"/>
<path id="Vector_6" d="M20.7496 8.22645C20.7172 7.76184 21.1967 7.13288 21.8835 7.0918C21.9159 7.52164 21.4721 8.17588 20.7496 8.22645Z" fill="#207384"/>
<path id="Vector_7" d="M9.75065 12.6891C9.68586 12.9167 9.54331 12.9862 9.32625 12.9736C9.00227 12.9578 8.67506 12.9736 8.34785 12.9672C8.12107 12.9672 8.07571 12.9293 8.01739 12.7112C8.00443 12.6638 7.99471 12.6164 7.97852 12.5437C8.57787 12.5753 9.17722 12.4552 9.75065 12.6859V12.6891Z" fill="#207384"/>
<path id="Vector_8" d="M22.6934 12.5535H22.8748C23.3219 12.5535 23.769 12.5535 24.2128 12.5535C24.3035 12.5535 24.3359 12.5724 24.3424 12.6704C24.3521 12.8032 24.297 12.8442 24.1739 12.8853C23.7787 13.0212 23.3769 12.9675 22.9752 12.9675C22.8748 12.9675 22.797 12.9169 22.7679 12.8158C22.7452 12.7368 22.7225 12.6578 22.6934 12.5535Z" fill="#207384"/>
<path id="Vector_9" d="M16.1523 4.71826C16.3856 5.23028 16.3014 5.76126 16.2916 6.31436C16.1718 6.27327 16.0649 6.24799 15.9677 6.20058C15.9288 6.18162 15.8932 6.12472 15.8899 6.08363C15.877 5.72016 15.8737 5.35987 15.8672 4.9964C15.864 4.80992 16.0195 4.78463 16.1523 4.71826Z" fill="#207384"/>
<path id="Vector_10" d="M20.7397 17.3037C20.9665 17.3037 21.1739 17.3227 21.3294 17.4997C21.4266 17.6071 21.5302 17.7114 21.6404 17.8063C21.8024 17.9422 21.9028 18.1002 21.8931 18.3151C21.8931 18.3467 21.9028 18.3815 21.9093 18.4162C21.514 18.3657 20.8693 17.7557 20.7397 17.3037Z" fill="#207384"/>
</g>
</g>
</g>
</g>
</svg>
