<svg width="30" height="35" viewBox="0 0 30 35" fill="none" xmlns="http://www.w3.org/2000/svg">
<path id="Vector" d="M26.7857 17.1429H10.1786V10.2389C10.1786 7.58712 12.3013 5.38399 14.9531 5.35721C17.6317 5.33042 19.8214 7.50676 19.8214 10.1786V11.2501C19.8214 12.1407 20.5379 12.8572 21.4286 12.8572H23.5714C24.4621 12.8572 25.1786 12.1407 25.1786 11.2501V10.1786C25.1786 4.55364 20.5915 -0.0200234 14.9665 6.59276e-05C9.34152 0.0201552 4.82143 4.65408 4.82143 10.2791V17.1429H3.21429C1.43973 17.1429 0 18.5827 0 20.3572V31.0715C0 32.846 1.43973 34.2858 3.21429 34.2858H26.7857C28.5603 34.2858 30 32.846 30 31.0715V20.3572C30 18.5827 28.5603 17.1429 26.7857 17.1429ZM17.6786 27.3215C17.6786 28.8014 16.4799 30.0001 15 30.0001C13.5201 30.0001 12.3214 28.8014 12.3214 27.3215V24.1072C12.3214 22.6273 13.5201 21.4286 15 21.4286C16.4799 21.4286 17.6786 22.6273 17.6786 24.1072V27.3215Z" fill="#207384"/>
</svg>
