<svg width="18" height="15" viewBox="0 0 18 15" fill="none" xmlns="http://www.w3.org/2000/svg">
<g id="Logo_1_">
<path id="white_background" d="M16.0367 4.07576C16.0476 4.23357 16.0476 4.39137 16.0476 4.55063C16.0476 9.40333 12.3605 15 5.61847 15V14.9971C3.62685 15 1.67661 14.4284 0 13.3506C0.289597 13.3856 0.580645 13.403 0.872419 13.4037C2.5229 13.4052 4.12621 12.8503 5.42468 11.8286C3.85621 11.7988 2.48081 10.7741 2.00032 9.27825C2.54976 9.38442 3.11589 9.36261 3.65516 9.21498C1.94516 8.86883 0.714919 7.3635 0.714919 5.61527C0.714919 5.59928 0.714919 5.584 0.714919 5.56873C1.22444 5.85307 1.79492 6.01088 2.37847 6.02833C0.767903 4.94987 0.271452 2.80314 1.24403 1.12473C3.105 3.41909 5.85073 4.81388 8.79823 4.96151C8.50282 3.68598 8.90637 2.34936 9.85863 1.4527C11.3349 0.0622682 13.6568 0.133535 15.0445 1.61196C15.8654 1.44979 16.6522 1.148 17.3722 0.720397C17.0985 1.57051 16.5259 2.29263 15.7609 2.75151C16.4874 2.66569 17.1973 2.4708 17.8657 2.17337C17.3736 2.91222 16.7538 3.5558 16.0367 4.07576Z" fill="#1D9BF0"/>
</g>
</svg>
